<svg width="40" height="40" viewBox="0 0 40 40" fill="none" xmlns="http://www.w3.org/2000/svg">
<g clip-path="url(#clip0_30_139)">
<path d="M8.56871 8.56821C14.8821 2.25502 25.1182 2.2555 31.4316 8.5689C37.7447 14.8823 37.7447 25.1177 31.4316 31.4311C25.1182 37.7445 14.8821 37.745 8.56871 31.4318C2.25523 25.1183 2.25523 14.8817 8.56871 8.56821ZM19.9998 12.3579C19.0334 12.358 18.25 13.1412 18.25 14.1077L18.2493 18.2502H14.1075C13.141 18.2502 12.3577 19.0335 12.3577 20C12.3577 20.9665 13.141 21.7498 14.1075 21.7498H18.2493L18.25 25.8923C18.2498 26.8588 19.0334 27.642 19.9998 27.6421C20.9663 27.6422 21.7497 26.8588 21.7496 25.8923L21.7489 21.7498H25.8921C26.8586 21.7498 27.6419 20.9665 27.6419 20C27.6419 19.0335 26.8586 18.2502 25.8921 18.2502H21.7489L21.7496 14.1077C21.7497 13.1412 20.9663 12.3578 19.9998 12.3579Z" stroke="#393939"/>
</g>
<defs>
<clipPath id="clip0_30_139">
<rect width="40" height="40" fill="white"/>
</clipPath>
</defs>
</svg>
