<svg width="40" height="40" viewBox="0 0 40 40" fill="none" xmlns="http://www.w3.org/2000/svg">
<path fill-rule="evenodd" clip-rule="evenodd" d="M33.8889 20C33.8889 27.6706 27.6705 33.8889 20 33.8889C12.3293 33.8889 6.11108 27.6706 6.11108 20C6.11108 12.3294 12.3293 6.11111 20 6.11111C27.6705 6.11111 33.8889 12.3294 33.8889 20ZM25.5976 15.7912C26.0044 16.198 26.0044 16.8576 25.5976 17.2643L18.6532 24.2088C18.2464 24.6156 17.5869 24.6156 17.1801 24.2088L14.4023 21.431C13.9955 21.0242 13.9955 20.3647 14.4023 19.9579C14.8091 19.5511 15.4686 19.5511 15.8754 19.9579L17.9166 21.999L21.0205 18.8951L24.1246 15.7912C24.5314 15.3844 25.1908 15.3844 25.5976 15.7912Z" stroke="#393939"/>
</svg>
