<svg width="40" height="40" viewBox="0 0 40 40" fill="none" xmlns="http://www.w3.org/2000/svg">
<path d="M19.665 3.5C28.5928 3.50002 35.8301 10.7374 35.8301 19.665C35.8301 28.5928 28.5928 35.8301 19.665 35.8301C10.7374 35.8301 3.50002 28.5928 3.5 19.665C3.5 10.7374 10.7374 3.5 19.665 3.5ZM19.665 12.2217C18.6219 12.2217 17.7764 13.0672 17.7764 14.1104V17.7764H14.1104C13.0672 17.7764 12.2217 18.6219 12.2217 19.665C12.2217 20.7081 13.0672 21.5537 14.1104 21.5537H17.7764V25.2197C17.7764 26.2628 18.6219 27.1084 19.665 27.1084C20.7081 27.1084 21.5537 26.2628 21.5537 25.2197V21.5537H25.2197C26.2628 21.5537 27.1084 20.7081 27.1084 19.665C27.1084 18.6219 26.2628 17.7764 25.2197 17.7764H21.5537V14.1104C21.5537 13.0672 20.7081 12.2217 19.665 12.2217Z" stroke="#393939"/>
</svg>
