<svg width="40" height="40" viewBox="0 0 40 40" fill="none" xmlns="http://www.w3.org/2000/svg">
<path d="M25.0654 12.8887C25.5835 12.3706 26.4233 12.3706 26.9414 12.8887C27.4594 13.4067 27.4594 14.2467 26.9414 14.7646L21.791 19.915L26.9414 25.0654C27.4594 25.5835 27.4595 26.4234 26.9414 26.9414C26.4234 27.4594 25.5835 27.4594 25.0654 26.9414L19.915 21.791L14.7646 26.9414C14.2467 27.4594 13.4067 27.4594 12.8887 26.9414C12.3706 26.4233 12.3707 25.5832 12.8887 25.0654L18.0391 19.915L12.8887 14.7646C12.3706 14.2466 12.3706 13.4067 12.8887 12.8887C13.4067 12.3706 14.2466 12.3706 14.7646 12.8887L19.915 18.0391L25.0654 12.8887Z" stroke="#393939"/>
</svg>
