<svg width="40" height="40" viewBox="0 0 40 40" fill="none" xmlns="http://www.w3.org/2000/svg">
<path d="M8.33337 5.5H31.6664C32.858 5.5 33.7049 5.50105 34.347 5.58203C34.9779 5.6616 35.3353 5.81086 35.5922 6.05176C35.8444 6.28845 35.9977 6.61125 36.0804 7.18848C36.1657 7.7835 36.1664 8.57078 36.1664 9.69141V10.8408C36.1664 11.7159 36.1664 12.3348 36.1156 12.8252C36.0661 13.303 35.9714 13.6194 35.806 13.8936C35.6395 14.1696 35.3944 14.4131 34.9769 14.7031C34.5516 14.9985 33.9832 15.3192 33.1849 15.7686L28.3295 18.502C27.2912 19.0863 26.7044 19.4138 26.2767 19.7852C25.4081 20.5392 24.8622 21.4387 24.6176 22.5361C24.4966 23.0782 24.5004 23.7021 24.5004 24.7881V29.2373C24.5004 30.8461 24.4981 31.9926 24.3666 32.8271C24.2375 33.6456 24.0006 34.046 23.6215 34.2832C23.233 34.5261 22.726 34.5782 21.8539 34.3711C20.9742 34.1621 19.839 33.7192 18.2592 33.1016C17.5036 32.8062 16.9724 32.5984 16.5756 32.3936C16.2851 32.2435 16.0917 32.1073 15.9515 31.9619L15.8275 31.8125C15.683 31.6091 15.596 31.3624 15.5492 30.959C15.5008 30.5415 15.5004 30.0068 15.5004 29.2373V24.7881C15.5004 23.702 15.5031 23.0782 15.3822 22.5361C15.1375 21.4388 14.5925 20.5392 13.724 19.7852C13.2962 19.4137 12.7088 19.0864 11.6703 18.502L6.8158 15.7686C6.01728 15.319 5.4482 14.9986 5.02283 14.7031C4.60535 14.4131 4.3603 14.1696 4.19373 13.8936C4.02842 13.6194 3.93465 13.3029 3.88513 12.8252C3.83433 12.3348 3.83337 11.7159 3.83337 10.8408V9.69141C3.83337 8.57072 3.83503 7.78351 3.92029 7.18848C4.00299 6.61135 4.15538 6.28845 4.40759 6.05176C4.66438 5.81083 5.02185 5.66162 5.65271 5.58203C6.2949 5.50102 7.14158 5.5 8.33337 5.5Z" stroke="#393939"/>
</svg>
