<svg width="30" height="30" viewBox="0 0 30 30" fill="none" xmlns="http://www.w3.org/2000/svg">
<path d="M12.8262 3H17.1738C17.4628 2.99979 17.658 3.00125 17.834 3.0332C18.5133 3.15656 19.1328 3.62177 19.5068 4.33301L19.5781 4.47852C19.6227 4.57582 19.662 4.68064 19.7012 4.7998L19.8242 5.20605L19.9678 5.69629C19.9916 5.7778 20 5.80646 20.0078 5.83105L20.0088 5.83203C20.3011 6.75011 21.1916 7.36065 22.0566 7.38574H25.2861C25.484 7.38601 25.75 7.59099 25.75 7.98242C25.75 8.3739 25.484 8.57884 25.2861 8.5791H4.71387C4.51591 8.57881 4.25 8.37387 4.25 7.98242C4.25002 7.59102 4.51592 7.38603 4.71387 7.38574H8.05176L8.05859 7.38477C8.96483 7.35864 9.71194 6.7094 9.99121 5.83203C9.99933 5.80653 10.0087 5.77648 10.0322 5.69629L10.1758 5.20605C10.2661 4.89728 10.3328 4.67294 10.4219 4.47852C10.7851 3.6854 11.4415 3.16482 12.166 3.0332C12.2541 3.0172 12.3471 3.00919 12.4541 3.00488L12.8262 3Z" stroke="#393939"/>
<path d="M10.1553 10.8949H19.8447C20.8177 10.8949 21.4944 10.8962 22.001 10.9681C22.43 11.029 22.6754 11.133 22.8467 11.2865L22.916 11.3558C23.0924 11.55 23.2005 11.8227 23.2363 12.3392C23.273 12.869 23.2297 13.5691 23.166 14.5687L22.833 19.8041C22.7165 21.6336 22.6305 22.9593 22.4385 23.9681C22.2488 24.9648 21.9667 25.5823 21.5039 26.0355C21.0439 26.4859 20.4449 26.7361 19.4922 26.8666C18.5231 26.9993 17.2591 27.0004 15.5059 27.0004H14.4941C12.7409 27.0004 11.4769 26.9993 10.5078 26.8666C9.55514 26.7361 8.95608 26.4859 8.49609 26.0355C8.03331 25.5823 7.75123 24.9648 7.56152 23.9681C7.36954 22.9593 7.28351 21.6336 7.16699 19.8041L6.83398 14.5687C6.77032 13.5692 6.727 12.869 6.76367 12.3392C6.79949 11.8227 6.90764 11.55 7.08398 11.3558C7.25819 11.164 7.50855 11.0378 7.99902 10.9681C8.5056 10.8962 9.18227 10.8949 10.1553 10.8949ZM11.7295 13.8549C10.9187 13.9402 10.3691 14.6882 10.4443 15.4799L11.0693 22.058C11.1449 22.8528 11.8301 23.4778 12.6455 23.392C13.4561 23.3066 14.0056 22.5594 13.9307 21.7679L13.3057 15.1888C13.2302 14.394 12.5449 13.7691 11.7295 13.8549ZM18.2705 13.8549C17.4552 13.769 16.7698 14.394 16.6943 15.1888L16.0693 21.7679C15.9944 22.5594 16.5439 23.3066 17.3545 23.392C18.1698 23.4778 18.8552 22.8528 18.9307 22.058L19.5557 15.4799C19.6309 14.6882 19.0813 13.9402 18.2705 13.8549Z" stroke="#393939"/>
</svg>
